<svg width="33" height="33" viewBox="0 0 17 18" fill="none" xmlns="http://www.w3.org/2000/svg">
<path fill-rule="evenodd" clip-rule="evenodd" d="M8.5 17C13.1944 17 17 13.1944 17 8.5C17 3.80558 13.1944 0 8.5 0C3.80558 0 0 3.80558 0 8.5C0 13.1944 3.80558 17 8.5 17Z" fill="#D9D9D9"/>
<path d="M10.7714 5C9.24996 5 8.5 6.45454 8.5 6.45454C8.5 6.45454 7.75004 5 6.22856 5C4.99206 5 4.0129 6.00318 4.00024 7.20022C3.97446 9.68498 6.03287 11.452 8.28908 12.937C8.35128 12.9781 8.42477 13 8.5 13C8.57523 13 8.64873 12.9781 8.71093 12.937C10.9669 11.452 13.0253 9.68498 12.9998 7.20022C12.9871 6.00318 12.0079 5 10.7714 5Z" stroke="#15141F" stroke-linecap="round" stroke-linejoin="round"/>
</svg>
